<?xml version="1.0" encoding="UTF-8"?>
<svg xmlns="http://www.w3.org/2000/svg" viewBox="0 0 50 50">
<style type="text/css">
	.st0{fill:#5CC0C7;}
</style>
<path class="st0" d="M13.8,6.6c0.2,0.4,0,0.9-0.4,1c-0.9,0.4-1.6,1.1-2,2c-0.2,0.4-0.7,0.6-1.1,0.4C9.9,9.8,9.7,9.3,9.9,8.9
	c0.6-1.2,1.6-2.2,2.8-2.8C13.1,6,13.6,6.2,13.8,6.6z M44.5,42h-0.7c-0.4,0-0.8,0.4-0.8,0.8c0,0.4,0.4,0.8,0.8,0.8h0.7
	c0.4,0,0.8-0.4,0.8-0.8C45.3,42.4,44.9,42,44.5,42z M39.8,42c-1.7,0-3-1.4-3-3v-3.6c0-3.3-2.7-6-6-6s-6,2.7-6,6V43
	c0,2.5-2,4.4-4.5,4.4s-4.4-2-4.4-4.4v-3h0.5c1.7,0,3.1-1.3,3.2-3l1-13.1c0-0.4-0.3-0.8-0.7-0.9c-0.4,0-0.8,0.3-0.9,0.7l-1,13.1
	c-0.1,0.8-0.8,1.5-1.6,1.5h-2.5c-0.8,0-1.5-0.7-1.6-1.5l-1.3-17.5c0-0.3-0.1-0.6-0.4-0.7c-2.6-1.6-4.1-4.3-4.1-7.3
	c0-4.7,3.9-8.6,8.6-8.6s8.6,3.9,8.6,8.6s-3.9,8.6-8.6,8.6c-0.4,0-0.8,0.4-0.8,0.8s0.4,0.8,0.8,0.8c5.6,0,10.2-4.6,10.2-10.2
	S20.5,1,14.9,1S4.7,5.6,4.7,11.2c0,3.4,1.7,6.6,4.5,8.5l1.3,17.3c0.1,1.7,1.5,3,3.2,3h0.4v3c0,3.3,2.7,6,6,6s6.1-2.7,6.1-6v-7.6
	c0-2.5,2-4.4,4.4-4.4s4.4,2,4.4,4.4V39c0,2.5,2.1,4.6,4.6,4.6c0.4,0,0.8-0.4,0.8-0.8C40.6,42.4,40.3,42,39.8,42L39.8,42z M14.1,25.3
	v1.2c0,0.4,0.4,0.8,0.8,0.8s0.8-0.4,0.8-0.8v-1.2c0-0.4-0.4-0.8-0.8-0.8S14.1,24.9,14.1,25.3L14.1,25.3z M43.7,5.1
	c0.1-0.4-0.1-0.9-0.6-1c-1.5-0.4-2.7-1.4-3.5-2.7c-0.4-0.7-1.5-0.4-1.5,0.4v12.1c0,1.5-1.2,2.7-2.7,2.7c-1.5,0-2.7-1.2-2.7-2.7
	s1.2-2.7,2.7-2.7c0.4,0,0.8-0.4,0.8-0.8s-0.4-0.8-0.8-0.8c-2.4,0-4.3,1.9-4.3,4.3s1.9,4.3,4.3,4.3s4.3-1.9,4.3-4.3V4
	c0.8,0.8,1.8,1.3,3,1.6C43.2,5.8,43.6,5.6,43.7,5.1L43.7,5.1z"/>
</svg>
