<?xml version="1.0" encoding="UTF-8"?>
<svg xmlns="http://www.w3.org/2000/svg" viewBox="0 0 48 48">
  <defs>
    <style>
      .cls-1 {
        fill: #079bab;
        stroke-width: 0px;
      }
    </style>
  </defs>
  <path class="cls-1" d="M23,40c-2.76,0-5-2.24-5-5s2.24-5,5-5,5,2.24,5,5-2.24,5-5,5ZM23,32c-1.65,0-3,1.35-3,3s1.35,3,3,3,3-1.35,3-3-1.35-3-3-3Z"/>
  <path class="cls-1" d="M33.46,32.4c-2.76,0-5-2.24-5-5s2.24-5,5-5,5,2.24,5,5-2.24,5-5,5ZM33.46,24.4c-1.65,0-3,1.35-3,3s1.35,3,3,3,3-1.35,3-3-1.35-3-3-3Z"/>
  <path class="cls-1" d="M29.47,20.1c-2.76,0-5-2.24-5-5s2.24-5,5-5,5,2.24,5,5-2.24,5-5,5ZM29.47,12.1c-1.65,0-3,1.35-3,3s1.35,3,3,3,3-1.35,3-3-1.35-3-3-3Z"/>
  <path class="cls-1" d="M16.53,20.1c-2.76,0-5-2.24-5-5s2.24-5,5-5,5,2.24,5,5-2.24,5-5,5ZM16.53,12.1c-1.65,0-3,1.35-3,3s1.35,3,3,3,3-1.35,3-3-1.35-3-3-3Z"/>
  <path class="cls-1" d="M12.54,32.4c-2.76,0-5-2.24-5-5s2.24-5,5-5,5,2.24,5,5-2.24,5-5,5ZM12.54,24.4c-1.65,0-3,1.35-3,3s1.35,3,3,3,3-1.35,3-3-1.35-3-3-3Z"/>
  <circle class="cls-1" cx="23" cy="24" r="1.5"/>
  <path class="cls-1" d="M40.91,45.03c-1.97,0-3.47-.49-4.87-.95-2.09-.69-3.74-1.23-6.66-.06-2.1.67-4.22.99-6.37.99-11.58,0-21-9.42-21-21S11.42,3,23,3s21,9.42,21,21c0,6.02-2.59,11.76-7.11,15.75-.41.37-1.04.33-1.41-.09-.37-.41-.33-1.05.09-1.41,4.09-3.61,6.43-8.8,6.43-14.25,0-10.48-8.52-19-19-19S4,13.52,4,24s8.52,19,19,19c1.94,0,3.86-.29,5.7-.87,3.52-1.42,5.78-.67,7.96.04,2.26.74,4.59,1.51,9-.11.52-.19,1.09.08,1.28.59s-.08,1.09-.59,1.28c-2.18.8-3.94,1.09-5.44,1.09Z"/>
</svg>