<?xml version="1.0" encoding="UTF-8"?>
<svg xmlns="http://www.w3.org/2000/svg" viewBox="0 0 50 50">
<style type="text/css">
	.st0{fill:#005D70;}
</style>
<path class="st0" d="M47.8,27.7H35.1c-0.6,0-1.1,0.4-1.2,0.9C33.8,29.3,34.3,30,35,30h9.4l-12.2,9.1H13.8C8.2,39.1,3.4,34.7,3.3,29
	c-0.1-3.6,1.7-6.8,4.5-8.7c0.4-0.3,0.8-0.5,1.3-0.7l0.2-0.1c1.3-0.6,2.8-1,4.4-1h0.6c4.3,0,8,3.4,8.2,7.7c0.2,4.5-3.5,8.3-8,8.3
	h-0.6c-3,0-5.6-2.2-5.9-5.2c-0.3-3.4,2.4-6.2,5.6-6.2c0.6,0,1.1-0.5,1.2-1.1c0-0.6-0.5-1.2-1.1-1.2c-4.5,0-8.2,3.8-8,8.3
	c0.2,4.3,3.8,7.7,8.2,7.7h0.6c2.1,0,4-0.6,5.6-1.6c0,0,0.1,0,0.1,0l11.5-7.7c2.9-1.9,4.6-5.1,4.6-8.6c0-5.7-4.6-10.3-10.3-10.3
	c-1.7,0-3.4,0.4-4.8,1.2c0,0,0,0,0,0c0,0-13.6,8-13.9,8.3c-3.7,2.2-6.1,6.4-6,11C1.2,36,7,41.4,13.8,41.4h18.8
	c0.2,0,0.5-0.1,0.7-0.2l15.2-11.4c0.5-0.3,0.6-1,0.3-1.5C48.7,27.9,48.2,27.7,47.8,27.7z M21.6,11.8c1.1-0.6,2.4-0.9,3.7-0.9
	c4.4,0,8,3.6,8,8c0,2.7-1.3,5.1-3.5,6.6l-6.1,4c0.3-1,0.5-2,0.5-3.1c0-5.6-4.5-10.1-10-10.3C14.2,16.2,21.6,11.8,21.6,11.8z"/>
</svg>
