<?xml version="1.0" encoding="UTF-8"?>
<svg xmlns="http://www.w3.org/2000/svg" viewBox="0 0 480 480">
  <defs>
    <style>
      .cls-1 {
        fill: #5cc0c7;
        stroke-width: 0px;
      }
    </style>
  </defs>
  <path class="cls-1" d="M472,144.79c-4.42,0-8,3.58-8,8v174.42c0,8.15-6.63,14.79-14.79,14.79H30.79c-8.15,0-14.79-6.64-14.79-14.79v-174.42c0-8.15,6.63-14.79,14.79-14.79h386.21c4.42,0,8-3.58,8-8s-3.58-8-8-8H30.79c-16.98,0-30.79,13.81-30.79,30.79v174.42c0,16.98,13.81,30.79,30.79,30.79h418.42c16.98,0,30.79-13.81,30.79-30.79v-174.42c0-4.42-3.58-8-8-8Z"/>
  <path class="cls-1" d="M84.83,190c-4.42,0-8,3.58-8,8v83.71c0,4.42,3.58,8,8,8h41.46c4.42,0,8-3.58,8-8s-3.58-8-8-8h-33.46v-75.71c0-4.42-3.58-8-8-8Z"/>
  <path class="cls-1" d="M171.93,198.78v82.93c0,4.42,3.58,8,8,8s8-3.58,8-8v-82.93c0-4.42-3.58-8-8-8s-8,3.58-8,8Z"/>
  <path class="cls-1" d="M284.2,195.85l-21.68,61.93-21.68-61.93c-1.46-4.17-6.02-6.37-10.19-4.91-4.17,1.46-6.37,6.02-4.91,10.19l29.23,83.51c2.49,7.12,12.61,7.12,15.1,0l29.23-83.51c1.46-4.17-.74-8.73-4.91-10.19-4.17-1.46-8.73.74-10.19,4.91Z"/>
  <path class="cls-1" d="M395.17,206c4.42,0,8-3.58,8-8s-3.58-8-8-8h-50.07c-4.42,0-8,3.58-8,8v83.71c0,4.42,3.58,8,8,8h50.07c4.42,0,8-3.58,8-8s-3.58-8-8-8h-42.07v-25.46h17.04c4.42,0,8-3.58,8-8s-3.58-8-8-8h-17.04v-26.25h42.07Z"/>
  <path class="cls-1" d="M240,76c4.42,0,8-3.58,8-8v-33c0-4.42-3.58-8-8-8s-8,3.58-8,8v33c0,4.42,3.58,8,8,8Z"/>
  <path class="cls-1" d="M162.44,89.88c3.12,3.12,8.19,3.12,11.31,0,3.12-3.12,3.12-8.19,0-11.31l-16.23-16.23c-3.12-3.12-8.19-3.12-11.31,0-3.12,3.12-3.12,8.19,0,11.31l16.23,16.23Z"/>
  <path class="cls-1" d="M311.9,92.23c2.05,0,4.1-.78,5.66-2.34l16.23-16.23c3.12-3.12,3.12-8.19,0-11.31-3.12-3.12-8.19-3.12-11.31,0l-16.23,16.23c-5.06,5.05-1.4,13.66,5.66,13.66Z"/>
  <path class="cls-1" d="M240,404c-4.42,0-8,3.58-8,8v33c0,4.42,3.58,8,8,8s8-3.58,8-8v-33c0-4.42-3.58-8-8-8Z"/>
  <path class="cls-1" d="M162.44,390.12l-16.23,16.23c-3.12,3.12-3.12,8.19,0,11.31,3.12,3.12,8.19,3.13,11.31,0l16.23-16.23c3.12-3.12,3.12-8.19,0-11.31-3.12-3.12-8.19-3.12-11.31,0Z"/>
  <path class="cls-1" d="M317.56,390.12c-3.12-3.12-8.19-3.12-11.31,0-3.12,3.12-3.12,8.19,0,11.31l16.23,16.23c1.56,1.56,3.61,2.34,5.66,2.34,7.06,0,10.71-8.6,5.66-13.66l-16.23-16.23Z"/>
</svg>