<?xml version="1.0" encoding="UTF-8"?>
<svg xmlns="http://www.w3.org/2000/svg" viewBox="0 0 24 24">
  <defs>
    <style>
      .cls-1 {
        fill: #005d70;
        stroke-width: 0px;
      }
    </style>
  </defs>
  <g id="Rounded">
    <path class="cls-1" d="M19,3H5c-1.11,0-2,.89-2,2v14c0,1.1.89,2,2,2h14c1.1,0,2-.9,2-2V5c0-1.11-.9-2-2-2ZM7.74,17h0c-.7,0-1.26-.57-1.26-1.26v-4.48c0-.7.57-1.26,1.26-1.26h0c.7,0,1.26.56,1.26,1.26v4.48c0,.7-.56,1.26-1.26,1.26ZM7.69,8.72c-.77,0-1.29-.51-1.29-1.2s.51-1.2,1.37-1.2c.77,0,1.29.51,1.29,1.2s-.51,1.2-1.37,1.2ZM16.78,17h0c-.67,0-1.22-.55-1.22-1.22v-2.61c0-1.06-.65-1.17-.89-1.17s-1.06.03-1.06,1.17v2.6c0,.67-.55,1.22-1.22,1.22h-.08c-.67,0-1.22-.55-1.22-1.22v-4.52c0-.7.56-1.26,1.26-1.26h0c.7,0,1.26.56,1.26,1.26,0,0,.28-1.26,2.2-1.26,1.22,0,2.2.98,2.2,3.17v2.6c0,.67-.55,1.22-1.22,1.22Z"/>
  </g>
</svg>