<?xml version="1.0" encoding="UTF-8"?>
<svg xmlns="http://www.w3.org/2000/svg" viewBox="0 0 50 50">
<style type="text/css">
	.st0{fill:#005D70;}
</style>
<g>
	<circle class="st0" cx="11.4" cy="35.4" r="2.1"/>
	<path class="st0" d="M34.4,43.8c-3.5,0-6.8-1.8-8.7-4.7c-0.3-0.5-0.2-1.1,0.3-1.4s1.1-0.2,1.4,0.3c1.6,2.4,4.2,3.8,7,3.8
		c4.6,0,8.3-3.7,8.3-8.3S39,25,34.4,25c-3.4,0-6.5,2.1-7.8,5.3c-0.2,0.5-0.8,0.8-1.4,0.6c-0.5-0.2-0.8-0.8-0.6-1.4
		c1.6-4,5.4-6.6,9.7-6.6c5.7,0,10.4,4.7,10.4,10.4S40.1,43.8,34.4,43.8L34.4,43.8z"/>
	<path class="st0" d="M12.5,31.3c-0.4,0-0.9-0.3-1-0.7L7.3,17c-0.2-0.6,0.1-1.1,0.7-1.3c0.5-0.2,1.1,0.1,1.3,0.7l4.2,13.6
		c0.2,0.6-0.1,1.1-0.7,1.3C12.7,31.2,12.6,31.3,12.5,31.3L12.5,31.3z"/>
	<path class="st0" d="M6.2,49c-0.2,0-0.4-0.1-0.6-0.2c-0.5-0.3-0.6-1-0.2-1.5l5.2-7.3c0.3-0.5,1-0.6,1.5-0.2c0.5,0.3,0.6,1,0.2,1.5
		l-5.2,7.3C6.9,48.8,6.6,49,6.2,49L6.2,49z"/>
	<path class="st0" d="M43.8,49c-0.3,0-0.6-0.1-0.8-0.4l-5.2-6.3c-0.4-0.4-0.3-1.1,0.1-1.5c0.4-0.4,1.1-0.3,1.5,0.1l5.2,6.3
		c0.4,0.4,0.3,1.1-0.1,1.5C44.2,48.9,44,49,43.8,49z"/>
	<path class="st0" d="M33.3,25c-0.5,0-0.9-0.3-1-0.8L29.2,8.6c-0.1-0.5,0.2-1,0.7-1.2l8-2.9l1.9-3.1c0.3-0.5,0.9-0.6,1.4-0.3
		c0.5,0.3,0.6,0.9,0.3,1.4L39.5,6c-0.1,0.2-0.3,0.4-0.5,0.4l-7.5,2.7l3,14.6c0.1,0.6-0.3,1.1-0.8,1.2C33.5,25,33.4,25,33.3,25
		L33.3,25z"/>
	<path class="st0" d="M11.9,17.7H5.1c-1.7,0-3-1.4-3-3c0-0.9,0.4-1.7,1-2.2c0.6-0.6,1.5-0.8,2.3-0.8l6.8,0.7
		c1.4,0.1,2.4,1.3,2.4,2.7C14.6,16.5,13.4,17.7,11.9,17.7z M5.1,13.8c-0.2,0-0.4,0.1-0.6,0.2c-0.2,0.2-0.3,0.4-0.3,0.7
		c0,0.5,0.4,0.9,0.9,0.9h6.8c0.3,0,0.6-0.3,0.6-0.6c0-0.3-0.2-0.6-0.5-0.6l-6.8-0.7c0,0,0,0,0,0C5.1,13.8,5.1,13.8,5.1,13.8
		L5.1,13.8z"/>
	<path class="st0" d="M18.7,36.5h-6.3c-0.6,0-1-0.5-1-1c0-0.6,0.5-1,1-1h6.3c0.6,0,1,0.5,1,1C19.8,36,19.3,36.5,18.7,36.5z"/>
	<path class="st0" d="M9.4,49H3.1c-0.6,0-1-0.5-1-1c0-0.6,0.5-1,1-1h6.3c0.6,0,1,0.5,1,1C10.4,48.5,9.9,49,9.4,49z"/>
	<path class="st0" d="M46.9,49h-6.3c-0.6,0-1-0.5-1-1c0-0.6,0.5-1,1-1h6.3c0.6,0,1,0.5,1,1C48,48.5,47.5,49,46.9,49z"/>
	<path class="st0" d="M11.4,41.7c-3.5,0-6.3-2.8-6.3-6.3c0-3.5,2.8-6.3,6.3-6.3h23c2.3,0,4.2,1.9,4.2,4.2c0,1.1-0.5,3.2-3.9,4.1
		C33.7,37.8,13.8,41.7,11.4,41.7z M11.4,31.3c-2.3,0-4.2,1.9-4.2,4.2s1.9,4.2,4.2,4.2c2,0,21.7-3.8,22.7-4.1
		c2.4-0.7,2.4-1.8,2.4-2.1c0-1.1-0.9-2.1-2.1-2.1H11.4z"/>
</g>
</svg>
