<?xml version="1.0" encoding="UTF-8"?>
<svg xmlns="http://www.w3.org/2000/svg" viewBox="0 0 50 50">
<style type="text/css">
	.st0{fill:#005D70;}
</style>
<g>
	<path class="st0" d="M48.2,15.5c-0.4,0-0.8,0.4-0.8,0.8v17.4c0,0.8-0.7,1.5-1.5,1.5H4.1c-0.8,0-1.5-0.7-1.5-1.5V16.3
		c0-0.8,0.7-1.5,1.5-1.5h38.6c0.4,0,0.8-0.4,0.8-0.8c0-0.4-0.4-0.8-0.8-0.8H4.1c-1.7,0-3.1,1.4-3.1,3.1v17.4c0,1.7,1.4,3.1,3.1,3.1
		h41.8c1.7,0,3.1-1.4,3.1-3.1V16.3C49,15.8,48.6,15.5,48.2,15.5L48.2,15.5z"/>
	<path class="st0" d="M9.5,20c-0.4,0-0.8,0.4-0.8,0.8v8.4C8.7,29.6,9,30,9.5,30h4.1c0.4,0,0.8-0.4,0.8-0.8s-0.4-0.8-0.8-0.8h-3.3
		v-7.6C10.3,20.4,9.9,20,9.5,20z"/>
	<path class="st0" d="M18.2,20.9v8.3c0,0.4,0.4,0.8,0.8,0.8s0.8-0.4,0.8-0.8v-8.3c0-0.4-0.4-0.8-0.8-0.8S18.2,20.4,18.2,20.9z"/>
	<path class="st0" d="M29.4,20.6l-2.2,6.2l-2.2-6.2c-0.1-0.4-0.6-0.6-1-0.5c-0.4,0.1-0.6,0.6-0.5,1l2.9,8.4c0.2,0.7,1.3,0.7,1.5,0
		l2.9-8.4c0.1-0.4-0.1-0.9-0.5-1C30,19.9,29.6,20.2,29.4,20.6z"/>
	<path class="st0" d="M40.5,21.6c0.4,0,0.8-0.4,0.8-0.8c0-0.4-0.4-0.8-0.8-0.8h-5c-0.4,0-0.8,0.4-0.8,0.8v8.4c0,0.4,0.4,0.8,0.8,0.8
		h5c0.4,0,0.8-0.4,0.8-0.8s-0.4-0.8-0.8-0.8h-4.2v-2.5H38c0.4,0,0.8-0.4,0.8-0.8s-0.4-0.8-0.8-0.8h-1.7v-2.6H40.5z"/>
	<path class="st0" d="M25,8.6c0.4,0,0.8-0.4,0.8-0.8V4.5c0-0.4-0.4-0.8-0.8-0.8s-0.8,0.4-0.8,0.8v3.3C24.2,8.2,24.6,8.6,25,8.6z"/>
	<path class="st0" d="M17.2,10c0.3,0.3,0.8,0.3,1.1,0c0.3-0.3,0.3-0.8,0-1.1l-1.6-1.6c-0.3-0.3-0.8-0.3-1.1,0
		c-0.3,0.3-0.3,0.8,0,1.1C15.6,8.4,17.2,10,17.2,10z"/>
	<path class="st0" d="M32.2,10.2c0.2,0,0.4-0.1,0.6-0.2l1.6-1.6c0.3-0.3,0.3-0.8,0-1.1c-0.3-0.3-0.8-0.3-1.1,0l-1.6,1.6
		C31.1,9.4,31.5,10.2,32.2,10.2L32.2,10.2z"/>
	<path class="st0" d="M25,41.4c-0.4,0-0.8,0.4-0.8,0.8v3.3c0,0.4,0.4,0.8,0.8,0.8s0.8-0.4,0.8-0.8v-3.3C25.8,41.8,25.4,41.4,25,41.4
		z"/>
	<path class="st0" d="M17.2,40l-1.6,1.6c-0.3,0.3-0.3,0.8,0,1.1c0.3,0.3,0.8,0.3,1.1,0l1.6-1.6c0.3-0.3,0.3-0.8,0-1.1
		C18.1,39.7,17.6,39.7,17.2,40z"/>
	<path class="st0" d="M32.8,40c-0.3-0.3-0.8-0.3-1.1,0c-0.3,0.3-0.3,0.8,0,1.1l1.6,1.6c0.2,0.2,0.4,0.2,0.6,0.2
		c0.7,0,1.1-0.9,0.6-1.4L32.8,40L32.8,40z"/>
</g>
</svg>
