<?xml version="1.0" encoding="UTF-8"?>
<svg xmlns="http://www.w3.org/2000/svg" viewBox="0 0 64 64">
  <defs>
    <style>
      .cls-1 {
        fill: #005d70;
        stroke-width: 0px;
      }
    </style>
  </defs>
  <path class="cls-1" d="M62.4,45.5h-16.7c-.75,0-1.4.5-1.55,1.2-.15.95.55,1.8,1.5,1.8h12.35l-16,12h-24.2c-7.4,0-13.65-5.8-13.8-13.2-.1-4.7,2.25-8.9,5.85-11.4.5-.35,1.05-.7,1.65-.95l.2-.1c1.7-.85,3.7-1.35,5.8-1.35h.75c5.7,0,10.55,4.4,10.75,10.1.25,5.95-4.55,10.9-10.5,10.9h-.8c-3.9,0-7.35-2.95-7.7-6.85-.4-4.4,3.1-8.1,7.4-8.15.8,0,1.5-.6,1.55-1.4.05-.85-.65-1.6-1.5-1.6-5.9,0-10.7,4.95-10.5,10.9.2,5.7,5.05,10.1,10.75,10.1h.8c2.7,0,5.2-.8,7.3-2.15.05,0,.1-.05.1-.05l15.1-10.05c3.75-2.55,6-6.75,6-11.25,0-7.45-6.05-13.5-13.5-13.5-2.2,0-4.45.55-6.35,1.6,0,0-.05,0-.05.05,0,0-17.8,10.55-18.25,10.85-4.85,2.95-8,8.4-7.85,14.5.25,8.95,7.85,16,16.8,16h24.7c.3,0,.65-.1.9-.3l20-15c.6-.45.8-1.25.4-1.95-.25-.5-.8-.75-1.4-.75ZM28.1,24.7c1.5-.8,3.2-1.2,4.9-1.2,5.8,0,10.5,4.7,10.5,10.5,0,3.5-1.75,6.75-4.65,8.7l-8,5.3c.4-1.25.6-2.65.6-4.05,0-7.3-5.85-13.3-13.1-13.5l9.75-5.75Z"/>
</svg>