<?xml version="1.0" encoding="UTF-8"?>
<svg xmlns="http://www.w3.org/2000/svg" viewBox="0 0 50 50">
<style type="text/css">
	.st0{fill:#5CC0C7;}
</style>
<g>
	<path class="st0" d="M36.1,34.5c3.3-1.6,5.5-4.8,5.5-6s-1.6-3.5-6.9,0.1c-1.5,1.1-4.2-1.1-5.3,0.5c-0.6,0.8,0.8,2.6,2.6,3.9
		C33.4,34.1,35.2,34.9,36.1,34.5z"/>
	<path class="st0" d="M25,2.2c-2.7,0-5.3,0.4-7.9,1.4c-0.6,0.2-1,0.9-0.7,1.5c0.2,0.6,0.9,1,1.5,0.7C20.2,5,22.6,4.6,25,4.6
		c2.6,0,5.1,0.5,7.4,1.4l0.1,2.9c0,1.1-0.6,2.1-1.6,2.5c-2.2,1-4.4,0.4-5.3,3c-0.8,1.9,1.2,7.1,3.7,7.1c3.1,0,4.6-6.2,5.5-6.2
		c0.6,0,1.5,1.9,2.6,3.3c0.7,1,1.8,1.5,3,1.5h2l2.9,0.7c0.4,1.5,0.6,3.1,0.6,4.7c0,4.6-1.4,8.9-4.1,12.4c0,0-0.1,0.1-0.1,0.2
		c-1.2,1.5-2.5,2.9-4.1,4.1c-0.5,0.4-0.6,1.2-0.2,1.7c0.2,0.3,0.6,0.5,1,0.5c0.2,0,0.5-0.1,0.7-0.2c1-0.8,2-1.7,2.9-2.6
		c0.2,2.1-0.2,3.6-1.1,4.5c-2.8,2.3-10.9-1.2-18.5-10.1c-2-2.4-3.6-5-4.9-7.4c0.6-0.9,1.8-1.6,2.6-2.4c1.2-1.2,1.5-3,0.9-4
		c-1.6-2.8-4.8-2.2-6.2,0.1c-0.6-1.7-1-3-1.1-3.8c-0.2-0.6-0.8-1-1.4-0.9c-0.6,0.2-1,0.8-0.9,1.4c0.4,1.5,1.1,4,2.3,7l0,0
		c1.5,3.5,3.7,7.7,7,11.5C26.7,44.6,33.7,49,38.5,49c1.5,0,2.8-0.4,3.8-1.2c1.9-1.6,2.5-4.4,1.7-8.1L43.9,39c2.8-4,4.4-8.7,4.4-13.6
		C48.2,12.6,37.8,2.2,25,2.2z"/>
	<path class="st0" d="M11.7,1c-0.7,0-1.2,0.5-1.2,1.2v5.1L6.8,11c-0.5,0.5-0.5,1.2,0,1.7C7.1,12.9,7.4,13,7.7,13
		c0.3,0,0.6-0.1,0.8-0.4l2-2v2.6l-0.6,0.6c-0.5,0.5-0.5,1.2,0,1.7c0.2,0.2,0.6,0.4,0.8,0.4s0.6-0.1,0.8-0.4l1-1
		c0.2-0.2,0.4-0.5,0.4-0.8v-3.1l2,2c0.2,0.2,0.6,0.4,0.8,0.4s0.6-0.1,0.8-0.4c0.5-0.5,0.5-1.2,0-1.7l-3.6-3.6V2.2
		C12.9,1.5,12.3,1,11.7,1z"/>
	<path class="st0" d="M5.6,14.8c-0.6-0.3-1.3,0-1.6,0.6c-1.5,3.2-2.3,6.5-2.3,10.1c0,12.8,10.4,23.2,23.2,23.2
		c0.7,0,1.2-0.5,1.2-1.2s-0.5-1.2-1.2-1.2c-4,0-7.7-1.1-10.9-3.1c0.6,0,1.3-0.2,1.9-0.6c0.8-0.4,1.5-0.9,2.4-1.5
		c0.3-0.2,0.5-0.4,0.7-0.6c0.3-0.3,0.3-0.8,0-1.2c-0.1-0.2-0.3-0.3-0.4-0.5c-2.6-3-4.5-6.1-6-9.1c-0.3-0.6-1-0.6-1.4-0.2l0,0
		C10.2,30.6,8,30,7.4,28.4c-0.7-1.8,1.7-2.5,1.3-4.9c-0.1-0.6-0.8-1-1.6-1.1l-2.8,0.1c0.3-2.1,0.9-4.1,1.8-6.1
		C6.5,15.8,6.2,15.1,5.6,14.8z"/>
</g>
</svg>
