<?xml version="1.0" encoding="UTF-8"?>
<svg xmlns="http://www.w3.org/2000/svg" viewBox="0 0 50 50">
  <defs>
    <style>
      .cls-1 {
        fill: #5cc0c7;
        stroke-width: 0px;
      }
    </style>
  </defs>
  <circle class="cls-1" cx="13" cy="35" r="2"/>
  <path class="cls-1" d="M35,43c-3.39,0-6.52-1.69-8.38-4.53-.3-.46-.17-1.08.29-1.38.46-.3,1.08-.17,1.38.29,1.49,2.27,3.99,3.63,6.7,3.63,4.41,0,8-3.59,8-8s-3.59-8-8-8c-3.3,0-6.22,1.98-7.44,5.04-.2.51-.79.77-1.3.56-.51-.2-.76-.79-.56-1.3,1.52-3.83,5.17-6.3,9.29-6.3,5.51,0,10,4.49,10,10s-4.49,10-10,10Z"/>
  <path class="cls-1" d="M14,31c-.43,0-.82-.28-.96-.71l-4-13c-.16-.53.13-1.09.66-1.25.52-.16,1.09.13,1.25.66l4,13c.16.53-.13,1.09-.66,1.25-.1.03-.2.04-.29.04Z"/>
  <path class="cls-1" d="M8,48c-.2,0-.4-.06-.58-.19-.45-.32-.55-.95-.23-1.39l5-7c.32-.45.95-.55,1.4-.23.45.32.55.95.23,1.39l-5,7c-.2.27-.5.42-.81.42Z"/>
  <path class="cls-1" d="M44,48c-.29,0-.57-.12-.77-.36l-5-6c-.35-.42-.3-1.06.13-1.41.43-.35,1.06-.29,1.41.13l5,6c.35.42.3,1.06-.13,1.41-.19.16-.41.23-.64.23Z"/>
  <path class="cls-1" d="M34,25c-.47,0-.88-.33-.98-.8l-3-14.88c-.1-.49.18-.97.64-1.14l7.67-2.76,1.82-2.95c.29-.47.9-.62,1.38-.33.47.29.62.91.33,1.38l-2,3.25c-.12.19-.3.34-.51.42l-7.19,2.58,2.83,14.03c.11.54-.24,1.07-.78,1.18-.07.01-.13.02-.2.02Z"/>
  <path class="cls-1" d="M13.43,18h-6.54c-1.59,0-2.89-1.3-2.89-2.89,0-.82.35-1.6.96-2.15.61-.55,1.43-.81,2.24-.72l6.48.63c1.32.13,2.32,1.23,2.32,2.56,0,1.42-1.15,2.57-2.57,2.57ZM6.89,14.22c-.22,0-.42.08-.59.23-.19.17-.3.41-.3.66,0,.49.4.89.89.89h6.54c.32,0,.57-.26.57-.57,0-.3-.22-.54-.52-.57l-6.48-.63s0,0-.01,0c-.03,0-.07,0-.1,0Z"/>
  <path class="cls-1" d="M20,36h-6c-.55,0-1-.45-1-1s.45-1,1-1h6c.55,0,1,.45,1,1s-.45,1-1,1Z"/>
  <path class="cls-1" d="M11,48h-6c-.55,0-1-.45-1-1s.45-1,1-1h6c.55,0,1,.45,1,1s-.45,1-1,1Z"/>
  <path class="cls-1" d="M47,48h-6c-.55,0-1-.45-1-1s.45-1,1-1h6c.55,0,1,.45,1,1s-.45,1-1,1Z"/>
  <path class="cls-1" d="M13,41c-3.31,0-6-2.69-6-6s2.69-6,6-6h22c2.21,0,4,1.79,4,4,0,1.08-.48,3.03-3.72,3.96-.9.26-19.97,4.04-22.28,4.04ZM13,31c-2.21,0-4,1.79-4,4s1.79,4,4,4c1.95,0,20.79-3.69,21.72-3.96,2.28-.66,2.28-1.7,2.28-2.04,0-1.1-.9-2-2-2H13Z"/>
</svg>