<?xml version="1.0" encoding="utf-8"?>
<!-- Generator: Adobe Illustrator 27.7.0, SVG Export Plug-In . SVG Version: 6.00 Build 0)  -->
<svg version="1.1" xmlns="http://www.w3.org/2000/svg" xmlns:xlink="http://www.w3.org/1999/xlink" x="0px" y="0px"
	 viewBox="0 0 512 512" style="enable-background:new 0 0 512 512;" xml:space="preserve">
<style type="text/css">
	.st0{fill:#FFFFFF;}
</style>
<g id="icon">
	<path id="background" class="st0" d="M26.2,0h459.6C500.2,0,512,11.8,512,26.2v459.6c0,14.5-11.8,26.2-26.2,26.2H26.2
		C11.8,512,0,500.2,0,485.8V26.2C0,11.8,11.8,0,26.2,0z"/>
	<path id="trace" d="M58.8,202.5c4.3-7.1,33-4.1,35.8,2.6c2.9,6.7-0.9,46-0.9,46s36-71.5,66.9-67.7c22.6,2.9,29.4,46,29.4,46
		s37-43.5,68.4-27.3c36.9,19-22.9,175.3,4.4,183.8c18.3,5.7,89-190,136.1-198.6s31.2,68.4,29.3,86.9c-1.9,18.4-9.6,90.7,6.7,84.4
		c26.2-10.3,29.7-66.3,41.9-71.4c11.8-4.9,9.8,66.7-41.7,101.8c-28.6,19.5-66.5-6.2-45.5-114.3c5.6-29.2,4.6-54.9-3.1-53.7
		c-17.6,2.8-99.8,194.3-133.9,204.4c-50.5,15.1-40.1-61.1-37.3-84.3S233.1,237.4,218,233c-9.8-3-35.7,7.9-42.9,155.1
		c0,0-31.3,22.3-38,2c-6.7-20.2,31.4-160.6,14.3-171.9c-17.2-11.3-58.6,57.2-59.1,64.9c-0.5,7.7,1.4,108.4,0,110.4
		s-28.5,15.8-37.6,1.2C45.6,380.3,45.6,224.6,58.8,202.5L58.8,202.5L58.8,202.5z"/>
	<g id="cursor">
		<path id="solid" d="M302.1,68h8.9c4.3,0,7.8,3.5,7.8,7.8V437c0,4.3-3.5,7.8-7.8,7.8h-8.9c-4.3,0-7.8-3.5-7.8-7.8V75.9
			C294.3,71.6,297.8,68,302.1,68z"/>
		<path id="overlap" class="st0" d="M318.8,294.4c-8.7,16.7-17,33-24.5,47.2v33.8c8-13.1,16.3-27.6,24.5-42.5V294.4L318.8,294.4
			L318.8,294.4z"/>
	</g>
	<g id="border">
		<path d="M472.7,39.3v433.4H39.3V39.3H472.7 M475.8,20.5H36.2c-8.7,0-15.8,7.1-15.8,15.8v439.5c0,8.7,7.1,15.8,15.8,15.8h439.5
			c8.7,0,15.8-7.1,15.8-15.8V36.2C491.5,27.5,484.5,20.5,475.8,20.5L475.8,20.5L475.8,20.5z"/>
	</g>
</g>
</svg>
