<?xml version="1.0" encoding="UTF-8"?>
<svg xmlns="http://www.w3.org/2000/svg" viewBox="0 0 128 128">
  <defs>
    <style>
      .cls-1 {
        fill: #079bab;
        stroke-width: 0px;
      }
    </style>
  </defs>
  <path class="cls-1" d="M91.6,86.5c8.3-3.9,13.7-12,13.7-15s-3.9-8.8-17.2.2c-3.7,2.7-10.4-2.7-13.3,1.3-1.5,2.1,2.1,6.5,6.4,9.7,3.8,2.9,8.2,4.9,10.4,3.8Z"/>
  <path class="cls-1" d="M64,6c-6.7,0-13.3,1.1-19.6,3.4-1.6.6-2.4,2.3-1.8,3.8.6,1.6,2.3,2.4,3.8,1.8,5.6-2,11.5-3,17.6-3,6.5,0,12.7,1.2,18.4,3.4l.2,7.3c0,2.7-1.6,5.2-4.1,6.3-5.5,2.4-11,1.1-13.3,7.4-1.9,4.7,3.1,17.6,9.2,17.6,7.7,0,11.4-15.5,13.7-15.5,1.5,0,3.8,4.7,6.5,8.2,1.8,2.4,4.6,3.7,7.6,3.7h5.1l7.3,1.7c.9,3.8,1.4,7.8,1.4,11.8,0,11.4-3.6,22.1-10.2,31-.1.1-.2.2-.3.4-2.9,3.8-6.3,7.2-10.2,10.2-1.3,1-1.6,2.9-.6,4.2.6.8,1.5,1.2,2.4,1.2.6,0,1.3-.2,1.8-.6,2.6-2,5-4.2,7.2-6.5.6,5.2-.4,9.1-2.8,11.2-6.9,5.8-27.1-3-46.1-25.3-5.1-6-9.1-12.4-12.3-18.4,1.5-2.2,4.4-4.1,6.4-6.1,2.9-2.9,3.8-7.4,2.3-10-3.9-6.9-12-5.4-15.5.2-1.5-4.2-2.4-7.6-2.8-9.4-.4-1.6-2-2.6-3.6-2.2-1.6.4-2.6,2-2.2,3.6.9,3.7,2.7,10,5.8,17.5h0c3.7,8.8,9.2,19.2,17.4,28.7,15.6,18.3,33,29.2,45.1,29.2,3.7,0,6.9-1,9.4-3.1,4.8-4,6.2-11,4.2-20.3l-.3-1.5c7.1-9.9,10.9-21.6,10.9-33.9,0-32-26-58-58-58Z"/>
  <path class="cls-1" d="M30.7,3c-1.7,0-3,1.3-3,3v12.8l-9.1,9.1c-1.2,1.2-1.2,3.1,0,4.2.6.6,1.4.9,2.1.9s1.5-.3,2.1-.9l4.9-4.9v6.5l-1.6,1.6c-1.2,1.2-1.2,3.1,0,4.2.6.6,1.4.9,2.1.9s1.5-.3,2.1-.9l2.5-2.5c.6-.6.9-1.3.9-2.1v-7.8l4.9,4.9c.6.6,1.4.9,2.1.9s1.5-.3,2.1-.9c1.2-1.2,1.2-3.1,0-4.2l-9.1-9.1V6c0-1.7-1.3-3-3-3Z"/>
  <path class="cls-1" d="M15.7,37.5c-1.5-.7-3.3-.1-4,1.4-3.8,7.9-5.7,16.3-5.7,25.1,0,32,26,58,58,58,1.7,0,3-1.3,3-3s-1.3-3-3-3c-10,0-19.3-2.8-27.3-7.8,1.6-.1,3.2-.6,4.7-1.4,1.9-1,3.8-2.3,6-3.7.7-.5,1.3-1,1.8-1.6.8-.8.8-2.1.1-3-.3-.4-.7-.8-1-1.2-6.4-7.4-11.3-15.3-14.9-22.7-.7-1.4-2.5-1.6-3.5-.5h0c-2.8,2.8-8.3,1.3-9.8-2.8-1.7-4.6,4.2-6.3,3.3-12.2-.2-1.6-1.9-2.4-4-2.7l-6.9.2c.7-5.2,2.3-10.3,4.6-15.2.7-1.4.1-3.2-1.4-3.9Z"/>
</svg>