<?xml version="1.0" encoding="UTF-8"?>
<svg xmlns="http://www.w3.org/2000/svg" viewBox="0 0 480.11 480.11">
  <defs>
    <style>
      .cls-1 {
        fill: #5cc0c7;
        stroke-width: 0px;
      }
    </style>
  </defs>
  <path class="cls-1" d="M127.94,55.73c1.74,4.06-.15,8.76-4.21,10.5-8.94,3.83-16.1,10.81-20.15,19.65-1.84,4.02-6.59,5.78-10.61,3.94-4.02-1.84-5.78-6.59-3.94-10.6,5.71-12.47,15.8-22.31,28.41-27.7,4.06-1.74,8.76.15,10.5,4.21ZM435.05,410.11h-7c-4.42,0-8,3.58-8,8s3.58,8,8,8h7c4.42,0,8-3.58,8-8s-3.58-8-8-8ZM388.22,410.11c-16.63,0-30.17-13.53-30.17-30.17v-36.33c0-33.36-27.14-60.5-60.5-60.5s-60.5,27.14-60.5,60.5v76c0,24.95-19.99,44.5-45.5,44.5s-44.5-19.96-44.5-44.5v-30.5h4.66c16.69,0,30.71-13.04,31.92-29.69l9.52-131.42c.32-4.41-2.99-8.24-7.4-8.56-4.41-.32-8.24,2.99-8.56,7.4l-9.52,131.42c-.6,8.32-7.61,14.84-15.96,14.84h-25.07c-8.35,0-15.36-6.52-15.96-14.84l-12.71-175.36c.21-2.89-1.15-5.8-3.79-7.42-25.75-15.79-41.13-43.22-41.13-73.38,0-47.42,38.58-86,86-86s86,38.58,86,86-38.58,86-86,86c-4.42,0-8,3.58-8,8s3.58,8,8,8c56.24,0,102-45.76,102-102S195.3.11,139.05.11,37.05,45.86,37.05,102.11c0,34.34,16.81,65.68,45.16,84.7l12.51,172.61c1.21,16.65,15.22,29.69,31.92,29.69h4.42v30.5c0,33.36,27.14,60.5,60.5,60.5s61.5-26.58,61.5-60.5v-76c0-24.54,19.96-44.5,44.5-44.5s44.5,19.96,44.5,44.5v36.33c0,25.46,20.71,46.17,46.17,46.17,4.42,0,8-3.58,8-8s-3.58-8-8-8ZM131.05,243.11v12c0,4.42,3.58,8,8,8s8-3.58,8-8v-12c0-4.42-3.58-8-8-8s-8,3.58-8,8ZM427.28,41.3c1.21-4.25-1.26-8.67-5.51-9.88-14.84-4.22-26.94-13.72-35.01-27.47-4.11-7.01-14.9-4.09-14.9,4.05v120.84c0,14.84-12.07,26.91-26.91,26.91s-26.91-12.07-26.91-26.91,12.07-26.91,26.91-26.91c4.42,0,8-3.58,8-8s-3.58-8-8-8c-23.66,0-42.91,19.25-42.91,42.91s19.25,42.91,42.91,42.91,42.91-19.25,42.91-42.91V30.41c8.44,7.63,18.49,13.26,29.53,16.4,4.25,1.21,8.67-1.26,9.88-5.51Z"/>
</svg>